<?xml version="1.0" encoding="UTF-8" standalone="no"?>
  <svg xmlns="http://www.w3.org/2000/svg" version="1.1" width="642.51961" height="642.51961" viewBox="0 0 169.99999 169.99999">
    <path d="M85 8.883A45.722 76.118 0 0 0 39.278 85 45.722 76.118 0 0 0 85 161.117 45.722 76.118 0 0 0 130.722 85 45.722 76.118 0 0 0 85 8.883m-.512 20.746a38.045 54.25 0 0 1 38.045 54.25 38.045 54.25 0 0 1-38.045 54.249 38.045 54.25 0 0 1-38.045-54.25 38.045 54.25 0 0 1 38.045-54.249"
  fill="#ffffff"/>
    <path d="m86.158 56.794-4.135 2.585-2.611-4.118-3.737-3.134 3.11-3.756 1.825-4.522 4.534 1.797 4.865.339-.308 4.866 1.181 4.732z" fill="#ffffff"/>
    <path d="M76.371 70.446h15.198v46.624H76.371Z" fill="#ffffff"/>
  </svg>